<svg width="76" height="52" viewBox="0 0 76 52" fill="none" xmlns="http://www.w3.org/2000/svg">
<path d="M48.7005 28.1896H41.391L23.7363 8.19004V28.1127L18.147 21.7837V0H23.8166L48.7005 28.1896Z" fill="#1034A6"/>
<path d="M30.001 0H37.3131L54.9678 20.0021V0.0768986L60.5544 6.40591V28.1896H54.8848L30.001 0Z" fill="#FFB313"/>
<path d="M8.48439 51.1012H5.90706L1.74671 44.1795H1.68777C1.77057 45.402 1.81209 46.2741 1.81209 46.7955V51.1012H0V41.9517H2.55778L6.71169 48.8044H6.7575C6.69212 47.6152 6.65944 46.7747 6.65944 46.2823V41.9517H8.48439V51.1012ZM10.8983 51.1012V41.9517H12.9261V51.1012H10.8983ZM18.9642 45.9631H22.7582V50.7069C22.1433 50.8989 21.5632 51.0322 21.0182 51.1074C20.4772 51.1868 19.9234 51.2263 19.3564 51.2263C17.913 51.2263 16.8096 50.8215 16.0465 50.0123C15.2877 49.1986 14.9083 48.0326 14.9083 46.5137C14.9083 45.037 15.3488 43.8855 16.2295 43.0593C17.1151 42.2332 18.3404 41.8202 19.906 41.8202C20.8872 41.8202 21.8336 42.0078 22.7451 42.3834L22.0712 43.9355C21.3735 43.6017 20.6474 43.4349 19.8928 43.4349C19.0164 43.4349 18.3141 43.7163 17.7866 44.2798C17.259 44.8429 16.995 45.6002 16.995 46.5514C16.995 47.5445 17.2065 48.3038 17.6295 48.8295C18.0569 49.3509 18.6761 49.6116 19.4874 49.6116C19.9103 49.6116 20.34 49.5701 20.776 49.4865V47.5778H18.9642V45.9631ZM30.5492 51.1012H25.0411V41.9517H30.5492V43.5412H27.0692V45.5502H30.3072V47.1397H27.0692V49.4991H30.5492V51.1012ZM34.5788 46.0131H35.2328C35.874 46.0131 36.3472 45.9111 36.6524 45.7065C36.9578 45.5022 37.1103 45.1808 37.1103 44.7427C37.1103 44.309 36.9533 44.0001 36.6393 43.8166C36.3298 43.633 35.8478 43.5412 35.1937 43.5412H34.5788V46.0131ZM34.5788 47.5904V51.1012H32.551V41.9517H35.3376C36.6371 41.9517 37.5988 42.1791 38.2225 42.6338C38.846 43.0844 39.1579 43.7707 39.1579 44.6927C39.1579 45.231 39.003 45.7106 38.6933 46.1321C38.3838 46.5494 37.9455 46.8767 37.3785 47.1146C38.8176 49.1715 39.7554 50.5003 40.1914 51.1012H37.9412L35.658 47.5904H34.5788ZM41.395 51.1012V41.9517H43.423V51.1012H41.395ZM51.685 51.1012L50.9916 48.9233H47.5049L46.8114 51.1012H44.6266L48.0022 41.914H50.4814L53.8698 51.1012H51.685ZM50.5074 47.2961C49.8665 45.3228 49.5045 44.2067 49.4215 43.9481C49.3429 43.6894 49.2864 43.4849 49.2516 43.3346C49.1077 43.8686 48.6953 45.1892 48.015 47.2961H50.5074ZM64.5784 51.1012H57.893V49.7557L60.2938 47.4338C61.0046 46.737 61.4689 46.2551 61.687 45.9883C61.9052 45.717 62.0622 45.4666 62.1581 45.2372C62.254 45.0078 62.302 44.7699 62.302 44.5238C62.302 44.1567 62.1951 43.8832 61.9813 43.704C61.772 43.5246 61.4907 43.4349 61.1375 43.4349C60.7669 43.4349 60.4071 43.5161 60.0582 43.6789C59.7094 43.8417 59.3452 44.0731 58.9658 44.3736L57.8667 43.128C58.3378 42.7443 58.7282 42.4731 59.0376 42.3147C59.3474 42.156 59.6852 42.035 60.0515 41.9517C60.4178 41.864 60.8278 41.8202 61.2814 41.8202C61.8789 41.8202 62.4065 41.9245 62.8644 42.1332C63.3223 42.3416 63.6779 42.6338 63.9308 43.0093C64.1837 43.3846 64.3102 43.8145 64.3102 44.2985C64.3102 44.7199 64.2317 45.1162 64.0747 45.4876C63.922 45.8547 63.6822 46.2323 63.355 46.6204C63.0324 47.0082 62.4611 47.5612 61.6412 48.2786L60.4114 49.3865V49.474H64.5784V51.1012ZM65.7756 50.2063C65.7756 49.8559 65.8736 49.5908 66.0698 49.4114C66.2662 49.232 66.5518 49.1423 66.9267 49.1423C67.2887 49.1423 67.5678 49.234 67.764 49.4178C67.9647 49.6014 68.0652 49.8641 68.0652 50.2063C68.0652 50.536 67.9647 50.7967 67.764 50.9887C67.5636 51.1763 67.2844 51.2701 66.9267 51.2701C66.5604 51.2701 66.2769 51.1784 66.0765 50.9948C65.8758 50.8072 65.7756 50.5442 65.7756 50.2063ZM76 46.5263C76 48.1243 75.7251 49.3071 75.1758 50.0748C74.6306 50.8426 73.7889 51.2263 72.6507 51.2263C71.5473 51.2263 70.7143 50.83 70.1519 50.0374C69.5935 49.2445 69.3146 48.0743 69.3146 46.5263C69.3146 44.9116 69.5871 43.7227 70.1321 42.9591C70.6773 42.1914 71.5168 41.8076 72.6507 41.8076C73.7541 41.8076 74.5869 42.2083 75.1496 43.0093C75.7165 43.8104 76 44.9826 76 46.5263ZM71.3228 46.5263C71.3228 47.6488 71.423 48.454 71.6237 48.9421C71.8287 49.426 72.1708 49.668 72.6507 49.668C73.1218 49.668 73.4618 49.4219 73.671 48.9295C73.8806 48.4373 73.9851 47.6363 73.9851 46.5263C73.9851 45.4041 73.8782 44.5989 73.6646 44.1106C73.4554 43.6184 73.1172 43.3723 72.6507 43.3723C72.1754 43.3723 71.8351 43.6184 71.6301 44.1106C71.4251 44.5989 71.3228 45.4041 71.3228 46.5263Z" fill="#1034A6"/>
</svg>
